<?xml version="1.0" standalone="no"?>
<!DOCTYPE svg PUBLIC "-//W3C//DTD SVG 20010904//EN"
 "http://www.w3.org/TR/2001/REC-SVG-20010904/DTD/svg10.dtd">
<svg version="1.0" xmlns="http://www.w3.org/2000/svg"
 width="512.000000pt" height="512.000000pt" viewBox="0 0 512.000000 512.000000"
 preserveAspectRatio="xMidYMid meet">

<g transform="translate(0.000000,512.000000) scale(0.100000,-0.100000)"
fill="#000000" stroke="none">
<path d="M1281 3951 c-700 -609 -1273 -1111 -1273 -1115 0 -9 241 -290 252
-294 3 -1 58 42 121 97 l114 99 5 -1037 5 -1036 23 -65 c37 -102 80 -169 156
-245 82 -81 163 -127 272 -155 70 -18 112 -20 472 -20 l394 0 -99 108 c-55 59
-132 148 -173 197 l-73 90 -222 5 -222 5 -41 29 c-26 17 -51 47 -67 79 l-25
51 0 1173 0 1172 830 721 830 721 830 -721 830 -721 0 -1172 0 -1173 -25 -51
c-16 -32 -41 -62 -67 -79 l-41 -29 -222 -5 -222 -5 -73 -90 c-41 -49 -118
-138 -173 -197 l-99 -108 394 0 c360 0 402 2 472 20 109 28 190 74 272 155 76
76 119 143 156 245 l23 65 5 1037 5 1036 114 -99 c62 -55 117 -99 121 -97 4 2
64 68 133 148 l126 145 -22 21 c-33 32 -2536 2204 -2539 2203 -2 0 -576 -499
-1277 -1108z"/>
<path d="M2443 2929 c-378 -36 -727 -275 -901 -617 -96 -189 -126 -317 -126
-542 0 -157 7 -213 47 -345 115 -387 488 -865 1029 -1318 31 -26 62 -47 68
-47 6 0 37 21 68 47 425 356 755 736 920 1059 122 238 156 372 156 604 0 225
-30 353 -126 542 -177 348 -520 580 -914 618 -109 11 -106 11 -221 -1z m294
-415 c225 -50 429 -228 518 -451 58 -143 70 -350 30 -498 -22 -80 -100 -242
-165 -344 -109 -170 -324 -422 -503 -591 l-59 -55 -147 150 c-306 312 -480
562 -561 804 -106 318 7 675 275 866 179 128 391 169 612 119z"/>
<path d="M2484 2076 c-64 -15 -126 -61 -170 -121 -110 -155 -39 -377 143 -445
180 -67 377 54 400 247 16 143 -84 286 -225 319 -68 16 -81 16 -148 0z"/>
</g>
</svg>
