<svg width="22" height="25" viewBox="0 0 22 25" fill="none" xmlns="http://www.w3.org/2000/svg">
<g clip-path="url(#clip0_1452:607)">
<path d="M20.8718 4.16663H1.12823C0.507676 4.16663 0 4.74353 0 5.44866V19.5512C0 20.2563 0.507676 20.8333 1.12823 20.8333H20.8718C21.4923 20.8333 22 20.2564 22 19.5512V5.44866C22 4.74353 21.4923 4.16663 20.8718 4.16663ZM20.4484 5.1281L11.649 12.6282C11.4908 12.765 11.2479 12.8506 11 12.8493C10.752 12.8506 10.5092 12.765 10.351 12.6282L1.55156 5.1281H20.4484ZM15.748 13.1231L20.5429 19.8539C20.5477 19.8606 20.5536 19.8657 20.5587 19.8719H1.44126C1.44633 19.8655 1.45226 19.8606 1.45707 19.8539L6.25195 13.1231C6.39886 12.9167 6.37102 12.6141 6.18905 12.4468C6.00742 12.2798 5.74114 12.3115 5.59419 12.5179L0.846141 19.183V5.72908L9.84354 13.3973C10.1817 13.6836 10.5932 13.8095 10.9999 13.8108C11.4061 13.8098 11.8179 13.6839 12.1563 13.3973L21.1537 5.72908V19.1829L16.4058 12.5179C16.2588 12.3115 15.9923 12.2798 15.8109 12.4468C15.629 12.6137 15.6011 12.9167 15.748 13.1231Z" fill="#695F5F"/>
</g>
<defs>
<clipPath id="clip0_1452:607">
<rect width="22" height="25" fill="white"/>
</clipPath>
</defs>
</svg>
