<svg width="30" height="30" viewBox="0 0 30 30" fill="none" xmlns="http://www.w3.org/2000/svg">
<path d="M14.985 30C6.70269 29.9917 -0.00551336 23.2723 3.40026e-06 14.99C0.00552697 6.70769 6.72268 -0.00275631 15.005 8.49335e-07C23.2873 0.00275971 30 6.71767 30 15C29.995 23.2881 23.2731 30.0033 14.985 30ZM3 15.258C3.07098 21.8599 8.46166 27.1643 15.0638 27.129C21.666 27.0933 26.9993 21.7312 26.9993 15.129C26.9993 8.52675 21.666 3.16465 15.0638 3.12899C8.46166 3.09368 3.07098 8.39813 3 15V15.258ZM16.5 22.5H13.5V19.5H16.5V22.5ZM16.5 16.5H13.5V7.49999H16.5V16.5Z" fill="#429FF2"/>
</svg>
