<svg width="20" height="20" viewBox="0 0 20 20" fill="none" xmlns="http://www.w3.org/2000/svg">
<path d="M10 20C4.48578 20 0 15.5142 0 10C0 4.48578 4.48578 0 10 0C15.5142 0 20 4.48578 20 10C20 15.5142 15.5142 20 10 20ZM10 1.25C5.17502 1.25 1.25 5.17502 1.25 10C1.25 14.825 5.17502 18.75 10 18.75C14.825 18.75 18.75 14.825 18.75 10C18.75 5.17502 14.825 1.25 10 1.25Z" fill="#7C7C80"/>
<path d="M15.0291 9.31462L10.5845 9.32805V4.97097C10.5845 4.59133 10.2789 4.28571 9.89928 4.28571C9.51976 4.28571 9.21402 4.59133 9.21402 4.97097L9.22746 9.31474H4.97103C4.59139 9.31474 4.28577 9.62036 4.28577 10C4.28577 10.3795 4.59139 10.6851 4.97103 10.6851H9.22074V15.029C9.22074 15.4084 9.52636 15.7143 9.906 15.7143C10.2856 15.7143 10.5913 15.4084 10.5913 15.029V10.6853H15.0291C15.4087 10.6853 15.7143 10.3794 15.7143 10C15.7143 9.62023 15.4053 9.31462 15.0291 9.31462Z" fill="#7C7C80"/>
</svg>
