<svg width="18" height="24" viewBox="0 0 18 24" fill="none" xmlns="http://www.w3.org/2000/svg">
<path d="M8.99996 24C7.37602 22.5638 5.87078 20.9893 4.49998 19.293C2.44285 16.7455 1.13613e-06 12.9516 1.13613e-06 9.33636C-0.00182221 5.56053 2.19116 2.15569 5.55563 0.710666C8.9201 -0.73436 12.7929 0.065257 15.3668 2.73639C17.0594 4.4835 18.0075 6.86005 18 9.33636C18 12.9516 15.5571 16.7455 13.4999 19.293C12.1291 20.9893 10.6239 22.5638 8.99996 24ZM8.99996 2.67107C5.45133 2.67547 2.57567 5.65705 2.57142 9.33636C2.57142 10.8907 3.24899 13.5821 6.47354 17.5827C7.26829 18.5665 8.11155 19.5071 8.99996 20.4007C9.88844 19.5082 10.7321 18.5689 11.5277 17.5867C14.7509 13.5808 15.4285 10.8894 15.4285 9.33636C15.4242 5.65705 12.5486 2.67547 8.99996 2.67107ZM8.99996 13.3355C6.86973 13.3355 5.14283 11.545 5.14283 9.33636C5.14283 7.12767 6.86973 5.33718 8.99996 5.33718C11.1302 5.33718 12.8571 7.12767 12.8571 9.33636C12.8571 10.397 12.4507 11.4142 11.7274 12.1642C11.004 12.9142 10.0229 13.3355 8.99996 13.3355Z" fill="#E05132"/>
</svg>
