<?xml version="1.0" standalone="no"?>
<!DOCTYPE svg PUBLIC "-//W3C//DTD SVG 20010904//EN"
 "http://www.w3.org/TR/2001/REC-SVG-20010904/DTD/svg10.dtd">
<svg version="1.0" xmlns="http://www.w3.org/2000/svg"
 width="512.000000pt" height="512.000000pt" viewBox="0 0 512.000000 512.000000"
 preserveAspectRatio="xMidYMid meet">

<g transform="translate(0.000000,512.000000) scale(0.100000,-0.100000)"
fill="#000000" stroke="none">
<path d="M2395 4469 c-164 -24 -393 -118 -520 -214 -500 -376 -621 -1052 -283
-1573 23 -36 37 -66 32 -71 -5 -4 -45 -32 -89 -62 -119 -80 -334 -300 -424
-432 -172 -255 -270 -523 -302 -825 -20 -194 -8 -252 65 -306 39 -29 133 -29
172 0 59 44 67 64 76 201 26 382 162 688 423 948 100 101 259 222 313 239 13
4 37 -6 73 -29 306 -207 739 -243 1090 -91 45 20 114 56 154 81 40 25 76 45
80 45 5 0 54 -30 109 -67 194 -129 379 -341 491 -563 24 -47 54 -95 66 -107
52 -48 122 -55 183 -20 52 29 80 77 80 136 -1 78 -130 313 -265 477 -81 99
-242 250 -335 313 -44 30 -83 58 -88 62 -5 5 9 35 32 71 257 396 253 903 -9
1290 -61 89 -207 238 -294 297 -240 166 -548 241 -830 200z m295 -320 c181
-29 325 -104 460 -239 236 -236 309 -551 201 -867 -88 -256 -291 -446 -568
-529 -76 -23 -106 -27 -223 -27 -117 0 -147 4 -223 27 -277 83 -480 273 -568
529 -81 237 -59 476 64 697 57 102 205 250 307 307 171 96 367 132 550 102z"/>
<path d="M3135 1266 c-67 -29 -105 -106 -91 -181 9 -47 59 -102 104 -115 25
-8 209 -10 554 -8 504 3 517 4 544 24 53 39 69 71 69 134 0 63 -16 95 -69 134
-27 21 -40 21 -554 23 -423 2 -533 0 -557 -11z"/>
</g>
</svg>
