<svg width="23" height="23" viewBox="0 0 23 23" fill="none" xmlns="http://www.w3.org/2000/svg">
<g clip-path="url(#clip0_1452:611)">
<path d="M17.9687 23H5.03125C3.84292 23 2.875 22.033 2.875 20.8438V10.7812C2.875 9.59196 3.84292 8.625 5.03125 8.625H17.9687C19.1571 8.625 20.125 9.59196 20.125 10.7812V20.8438C20.125 22.033 19.1571 23 17.9687 23ZM5.03125 10.0625C4.63546 10.0625 4.3125 10.3845 4.3125 10.7812V20.8438C4.3125 21.2405 4.63546 21.5625 5.03125 21.5625H17.9687C18.3645 21.5625 18.6875 21.2405 18.6875 20.8438V10.7812C18.6875 10.3845 18.3645 10.0625 17.9687 10.0625H5.03125Z" fill="#695F5F"/>
<path d="M16.5312 10.0625C16.1345 10.0625 15.8125 9.7405 15.8125 9.34375V5.75C15.8125 3.37238 13.8776 1.4375 11.5 1.4375C9.12238 1.4375 7.1875 3.37238 7.1875 5.75V9.34375C7.1875 9.7405 6.8655 10.0625 6.46875 10.0625C6.072 10.0625 5.75 9.7405 5.75 9.34375V5.75C5.75 2.57887 8.32887 0 11.5 0C14.6711 0 17.25 2.57887 17.25 5.75V9.34375C17.25 9.7405 16.928 10.0625 16.5312 10.0625Z" fill="#695F5F"/>
<path d="M11.5 16.2917C10.443 16.2917 9.58337 15.4321 9.58337 14.375C9.58337 13.318 10.443 12.4584 11.5 12.4584C12.5571 12.4584 13.4167 13.318 13.4167 14.375C13.4167 15.4321 12.5571 16.2917 11.5 16.2917ZM11.5 13.8959C11.2365 13.8959 11.0209 14.1105 11.0209 14.375C11.0209 14.6395 11.2365 14.8542 11.5 14.8542C11.7636 14.8542 11.9792 14.6395 11.9792 14.375C11.9792 14.1105 11.7636 13.8959 11.5 13.8959Z" fill="#695F5F"/>
<path d="M11.5 19.1667C11.1032 19.1667 10.7812 18.8447 10.7812 18.4479V15.8125C10.7812 15.4157 11.1032 15.0938 11.5 15.0938C11.8967 15.0938 12.2188 15.4157 12.2188 15.8125V18.4479C12.2188 18.8447 11.8967 19.1667 11.5 19.1667Z" fill="#695F5F"/>
</g>
<defs>
<clipPath id="clip0_1452:611">
<rect width="23" height="23" fill="white"/>
</clipPath>
</defs>
</svg>
