<svg width="18" height="28" viewBox="0 0 18 28" fill="none" xmlns="http://www.w3.org/2000/svg">
<path d="M15.2233 10.2037C14.9784 10.2037 14.78 10.0052 14.78 9.7605V6.66664C14.78 3.47948 12.1871 0.886492 8.99989 0.886492C5.81273 0.886492 3.21974 3.47948 3.21974 6.66664V9.7605C3.21974 10.0052 3.02117 10.2037 2.7765 10.2037C2.53183 10.2037 2.33325 10.0052 2.33325 9.7605V6.66664C2.33325 2.99058 5.32383 0 8.99989 0C12.676 0 15.6665 2.99058 15.6665 6.66664V9.7605C15.6665 10.0052 15.4682 10.2037 15.2233 10.2037Z" fill="#7C7C80"/>
<path d="M15.6551 26.8738H2.34489C1.29484 26.8738 0.443359 26.0225 0.443359 24.9723V11.6618C0.443359 10.6115 1.29461 9.76028 2.34489 9.76028H15.6551C16.7052 9.76028 17.5566 10.6115 17.5566 11.6618V24.9723C17.5566 26.0223 16.7054 26.8738 15.6551 26.8738Z" fill="#F4EFED"/>
<path d="M15.655 27.3168H2.34477C1.05182 27.3168 0 26.265 0 24.972V11.6616C0 10.3686 1.05182 9.31682 2.34477 9.31682H15.6552C16.9482 9.31682 18 10.3686 18 11.6616V24.972C17.9998 26.265 16.948 27.3168 15.655 27.3168ZM2.34477 10.2038C1.54072 10.2038 0.886492 10.858 0.886492 11.662V24.9725C0.886492 25.7765 1.54072 26.4308 2.34477 26.4308H15.6552C16.4593 26.4308 17.1135 25.7765 17.1135 24.9725V11.662C17.1135 10.858 16.4593 10.2038 15.6552 10.2038H2.34477Z" fill="#7C7C80"/>
<path d="M7.93445 22.8015L2.70459 17.844L4.50927 15.9405L7.9954 19.2449L13.6401 14.2331L15.379 16.1976L7.93445 22.8015Z" fill="#7C7C80"/>
<path d="M7.93451 23.2447C7.82481 23.2447 7.71488 23.2039 7.62956 23.1233L2.39948 18.1658C2.31415 18.0849 2.26451 17.9734 2.26141 17.8559C2.25808 17.7385 2.30196 17.6246 2.38286 17.5392L4.18753 15.6357C4.35574 15.458 4.63654 15.4507 4.81406 15.6189L8.00477 18.6436L13.3457 13.9017C13.4336 13.8235 13.5487 13.7836 13.6666 13.7907C13.784 13.7978 13.8937 13.8512 13.972 13.9394L15.7108 15.9039C15.8731 16.0872 15.856 16.3669 15.6729 16.5293L8.22838 23.1332C8.14483 23.2075 8.03956 23.2447 7.93451 23.2447ZM3.33118 17.8274L7.94449 22.2002L14.7539 16.1599L13.6027 14.8594L8.28977 19.5764C8.11735 19.7291 7.85717 19.7247 7.69051 19.5666L4.52617 16.567L3.33118 17.8274Z" fill="#7C7C80"/>
</svg>
