<svg width="43" height="40" viewBox="0 0 43 40" fill="none" xmlns="http://www.w3.org/2000/svg">
<rect width="43" height="40" rx="16" transform="matrix(-1 0 0 1 43 0)" fill="white"/>
<path fill-rule="evenodd" clip-rule="evenodd" d="M20.9382 11.557C20.5788 11.2003 20.0913 11 19.5831 11C19.0749 11 18.5874 11.2003 18.228 11.557L10.5612 19.1665C10.2019 19.5233 10 20.007 10 20.5115C10 21.0159 10.2019 21.4997 10.5612 21.8565L18.228 29.466C18.5895 29.8125 19.0736 30.0043 19.5762 29.9999C20.0787 29.9956 20.5595 29.7955 20.9149 29.4428C21.2702 29.0901 21.4718 28.6129 21.4762 28.1142C21.4805 27.6154 21.2873 27.1348 20.9382 26.776L16.5432 22.4139H31.0833C31.5916 22.4139 32.0792 22.2134 32.4386 21.8567C32.7981 21.4999 33 21.016 33 20.5115C33 20.0069 32.7981 19.5231 32.4386 19.1663C32.0792 18.8095 31.5916 18.6091 31.0833 18.6091H16.5432L20.9382 14.247C21.2975 13.8902 21.4994 13.4064 21.4994 12.902C21.4994 12.3975 21.2975 11.9137 20.9382 11.557Z" fill="#429FF2" fill-opacity="0.8"/>
</svg>
