<svg width="18" height="21" viewBox="0 0 18 21" fill="none" xmlns="http://www.w3.org/2000/svg">
<path d="M3.375 5.52632C3.375 2.47422 5.8934 0 9 0C12.1066 0 14.625 2.47422 14.625 5.52632C14.625 8.57842 12.1066 11.0526 9 11.0526C5.8934 11.0526 3.375 8.57842 3.375 5.52632ZM9 8.8421C10.864 8.8421 12.375 7.35758 12.375 5.52632C12.375 3.69506 10.864 2.21053 9 2.21053C7.13604 2.21053 5.625 3.69506 5.625 5.52632C5.625 7.35758 7.13604 8.8421 9 8.8421Z" fill="#695F5F"/>
<path d="M2.63604 14.7477C0.948212 16.4059 0 18.6549 0 21H2.25C2.25 19.2412 2.96116 17.5544 4.22703 16.3108C5.4929 15.0671 7.20979 14.3684 9 14.3684C10.7902 14.3684 12.5071 15.0671 13.773 16.3108C15.0388 17.5544 15.75 19.2412 15.75 21H18C18 18.6549 17.0518 16.4059 15.364 14.7477C13.6761 13.0895 11.3869 12.1579 9 12.1579C6.61305 12.1579 4.32387 13.0895 2.63604 14.7477Z" fill="#695F5F"/>
</svg>
